<svg width="40" height="40" viewBox="0 0 40 40" fill="none" xmlns="http://www.w3.org/2000/svg">
<path d="M24.19 10H15.81C12.17 10 10 12.17 10 15.81V24.18C10 27.83 12.17 30 15.81 30H24.18C27.82 30 29.99 27.83 29.99 24.19V15.81C30 12.17 27.83 10 24.19 10ZM22.79 20.53L19.26 24.06C19.11 24.21 18.92 24.28 18.73 24.28C18.54 24.28 18.35 24.21 18.2 24.06C17.91 23.77 17.91 23.29 18.2 23L21.2 20L18.2 17C17.91 16.71 17.91 16.23 18.2 15.94C18.49 15.65 18.97 15.65 19.26 15.94L22.79 19.47C23.09 19.76 23.09 20.24 22.79 20.53Z" fill="#256378"/>
</svg>
