<svg width="40" height="40" viewBox="0 0 40 40" fill="none" xmlns="http://www.w3.org/2000/svg">
<path d="M15.81 30L24.19 30C27.83 30 30 27.83 30 24.19L30 15.82C30 12.17 27.83 10 24.19 10L15.82 10C12.18 10 10.01 12.17 10.01 15.81L10.01 24.19C10 27.83 12.17 30 15.81 30ZM17.21 19.47L20.74 15.94C20.89 15.79 21.08 15.72 21.27 15.72C21.46 15.72 21.65 15.79 21.8 15.94C22.09 16.23 22.09 16.71 21.8 17L18.8 20L21.8 23C22.09 23.29 22.09 23.77 21.8 24.06C21.51 24.35 21.03 24.35 20.74 24.06L17.21 20.53C16.91 20.24 16.91 19.76 17.21 19.47Z" fill="#256378"/>
</svg>
